<?xml version="1.0" encoding="utf-8"?>
<!-- Generator: Adobe Illustrator 16.0.0, SVG Export Plug-In . SVG Version: 6.00 Build 0)  -->
<!DOCTYPE svg PUBLIC "-//W3C//DTD SVG 1.1//EN" "http://www.w3.org/Graphics/SVG/1.1/DTD/svg11.dtd">
<svg version="1.1" xmlns="http://www.w3.org/2000/svg" xmlns:xlink="http://www.w3.org/1999/xlink" x="0px" y="0px" width="1650px"
	 height="1650px" viewBox="0 0 1650 1650" enable-background="new 0 0 1650 1650" xml:space="preserve">
<g id="Capa_1">
</g>
<g id="Capa_2">
	<g>
		<g>
			<g>
				<g>
					<g>
						<g>
							<g>
								<g>
									<path fill="#614D13" d="M190.86,269.595c23.071-1.706,20.871,21.072,8.347,30.204c-10.008,7.293-23.892,4.998-31.493-2.587
										c-15.328-15.293-6.106-42.862,12.514-49.816c13.145-4.913,28.468,0.712,38.576,9.364
										c13.395,11.472,15.223,26.848,10.208,42.481c-5.572,17.344-20.316,30.137-36.984,36.289
										c-17.226,6.358-31.039,2.275-46.381-6.546c-30.964-17.802-31.08-69.363-17.232-97.833
										c12.967-26.644,32.621-45.975,59.38-58.388c30.411-14.105,56.104-12.578,85.683-3.428
										c34.498,10.667,69.816,39.554,97.493,61.285c26.726,20.979,54.019,37.954,83.468,54.878
										c33.984,19.544,70.274,27.573,107.707,38.953c37.753,11.475,76.943,13.602,116.509,11.135
										c59.632-3.713,147.269-33.219,149.513-105.301c0.121-3.9-5.919-3.891-6.045,0
										c-2.396,76.915-104.696,100.345-165.315,99.849c-35.646-0.295-71.255-9.713-104.993-20.523
										c-35.655-11.422-69.982-26.046-102.31-44.968c-31.226-18.278-60.911-39.292-89.182-61.839
										c-24.435-19.481-49.242-37.491-79.828-45.711c-49.71-13.35-114.301,0.171-146.804,42.29
										c-17.086,22.139-26.892,44.083-26.751,72.383c0.146,28.132,11.271,53.844,37.635,65.63
										c25.023,11.188,52.473,7.984,73.092-10.231c16.834-14.871,26.443-42.658,16.708-63.916
										c-8.205-17.916-29.489-30.458-49.377-26.484c-22.608,4.521-33.698,26.61-27.918,48.243
										c5.956,22.275,31.18,30.09,47.838,14.236c15.731-14.966,3.146-38.857-16.98-38.094c-8.608,0.322-14.372,3.166-13.073,9.096
										C177.339,281.536,187.906,269.812,190.86,269.595z"/>
								</g>
							</g>
							<g>
								<path fill="#614D13" d="M383.468,373.214c-6.024,0-12.448-1.346-18-4.472c-7.354-4.151-19.094-14.111-19.199-33.159
									c-0.267-49.552,106.12-64.542,107.162-64.674l2.135-0.261l0.714,2.059l0.519,2.086l-2.019,0.763l-0.845-2.24l0.161,2.386
									c59.606,20.216-88.386,10.025-97.534,58.277c-2.471,13.013,3.635,23.995,12.575,29.046
									c10.678,6.018,22.472,5.474,27.964,2.189c6.065-3.625,9.665-10.671,9.171-17.958c-0.443-6.516-5.411-14.522-11.064-16.937
									c-6.681-2.854-12.238-1.699-16.466,0.685c-4.37,2.466-4.138,11.21,0.685,10.447c8.694-1.374,12.227,6.293,6.016,10.285
									c-10.159,6.532-12.64-9.788-12.64-9.788c-1.118-4.521,0.387-9.064,4.032-12.167c5.124-4.357,13.199-4.822,21.605-1.233
									c7.355,3.141,12.092,10.015,12.656,18.384c0.619,9.083-3.901,17.89-11.513,22.436
									C395.57,371.762,389.731,373.214,383.468,373.214z"/>
							</g>
							<g>
								<path fill="#614D13" d="M732.196,324.45c-2.679,0-5.588-0.025-8.513-0.088c-35.721-0.808-68.255-10.551-94.089-28.18
									c-34.171-23.317-50.38-55.028-44.459-87.009c5.299-28.651,31.865-57.901,65.537-55.18
									c15.368,1.241,30.662,11.347,39.914,26.375c8.885,14.447,10.782,30.559,5.214,44.213
									c-4.626,11.338-18.821,27.546-34.618,26.327c-7.884-0.614-14.004-6.813-15.595-15.794
									c-1.355-7.634,4.667-22.441,12.544-27.271c4.313-2.638,12.001-2.653,14.885,1.044c2.371,3.041,0.484,13.35-7.858,13.283
									c-6.655-0.056-15.836,6.302-14.81,12.101c0.906,5.122,4.384,11.283,11.205,11.82c12.802,1.009,25.518-12.915,29.771-23.34
									c4.979-12.21,3.424-26.869-4.862-39.847c-6.353-9.947-16.059-19.42-29.917-20.535
									c-30.999-2.507-55.474,24.654-60.397,51.243c-5.552,30.007,11.664,57.369,44.183,79.556
									c25.059,17.105,48.678,25.577,83.462,26.36c5.025,0.108,10.019,0.087,13.809,0.06l0.036,4.835
									C736.011,324.44,734.169,324.45,732.196,324.45z"/>
							</g>
						</g>
					</g>
				</g>
				<g>
					<g>
						<g>
							<g>
								<g>
									<path fill="#614D13" d="M1459.136,269.595c-23.075-1.706-20.864,21.072-8.346,30.204
										c10.008,7.293,23.896,4.998,31.492-2.587c15.333-15.293,6.107-42.862-12.51-49.816
										c-13.153-4.913-28.472,0.712-38.579,9.364c-13.396,11.472-15.224,26.848-10.205,42.481
										c5.572,17.344,20.313,30.137,36.98,36.289c17.227,6.358,31.039,2.275,46.383-6.546
										c30.969-17.802,31.079-69.363,17.225-97.833c-12.961-26.644-32.608-45.975-59.374-58.388
										c-30.411-14.105-56.103-12.578-85.683-3.428c-34.499,10.667-69.816,39.554-97.488,61.285
										c-26.729,20.979-54.023,37.954-83.467,54.878c-33.984,19.544-70.279,27.573-107.711,38.953
										c-37.754,11.475-76.944,13.602-116.512,11.135c-59.632-3.713-147.268-33.219-149.512-105.301
										c-0.12-3.9,5.925-3.891,6.045,0c2.392,76.915,104.701,100.345,165.31,99.849c35.646-0.295,71.261-9.713,104.998-20.523
										c35.66-11.422,69.987-26.046,102.311-44.968c31.23-18.278,60.915-39.292,89.187-61.839
										c24.43-19.481,49.236-37.491,79.822-45.711c49.71-13.35,114.301,0.171,146.805,42.29
										c17.084,22.139,26.892,44.083,26.751,72.383c-0.151,28.132-11.271,53.844-37.635,65.63
										c-25.019,11.188-52.474,7.984-73.092-10.231c-16.834-14.871-26.443-42.658-16.708-63.916
										c8.205-17.916,29.483-30.458,49.378-26.484c22.608,4.521,33.696,26.61,27.918,48.243
										c-5.955,22.275-31.181,30.09-47.837,14.236c-15.731-14.966-3.147-38.857,16.979-38.094
										c8.608,0.322,14.377,3.166,13.078,9.096C1472.658,281.536,1462.092,269.812,1459.136,269.595z"/>
								</g>
							</g>
							<g>
								<path fill="#614D13" d="M1266.527,373.214c6.031,0,12.449-1.346,18.007-4.472c7.351-4.151,19.089-14.111,19.194-33.159
									c0.267-49.552-106.121-64.542-107.163-64.674l-2.128-0.261l-0.715,2.059l-0.52,2.086l2.014,0.763l0.852-2.24l-0.166,2.386
									c-59.607,20.216,88.385,10.025,97.537,58.277c2.467,13.013-3.641,23.995-12.58,29.046
									c-10.677,6.018-22.477,5.474-27.964,2.189c-6.065-3.625-9.665-10.671-9.171-17.958c0.442-6.516,5.416-14.522,11.064-16.937
									c6.68-2.854,12.236-1.699,16.466,0.685c4.37,2.466,4.138,11.21-0.685,10.447c-8.688-1.374-12.229,6.293-6.016,10.285
									c10.158,6.532,12.64-9.788,12.64-9.788c1.118-4.521-0.388-9.064-4.026-12.167c-5.129-4.357-13.21-4.822-21.61-1.233
									c-7.361,3.141-12.087,10.015-12.655,18.384c-0.62,9.083,3.9,17.89,11.512,22.436
									C1254.426,371.762,1260.266,373.214,1266.527,373.214z"/>
							</g>
							<g>
								<path fill="#614D13" d="M917.808,324.45c2.671,0,5.582-0.025,8.507-0.088c35.721-0.808,68.255-10.551,94.09-28.18
									c34.174-23.317,50.379-55.028,44.459-87.009c-5.301-28.651-31.864-57.901-65.537-55.18
									c-15.363,1.241-30.661,11.347-39.913,26.375c-8.886,14.447-10.784,30.559-5.217,44.213
									c4.627,11.338,18.822,27.546,34.62,26.327c7.887-0.614,14.004-6.813,15.594-15.794c1.355-7.634-4.661-22.441-12.544-27.271
									c-4.31-2.638-12.001-2.653-14.88,1.044c-2.377,3.041-0.488,13.35,7.856,13.283c6.655-0.056,15.832,6.302,14.806,12.101
									c-0.906,5.122-4.385,11.283-11.205,11.82c-12.803,1.009-25.518-12.915-29.771-23.34c-4.979-12.21-3.423-26.869,4.863-39.847
									c6.353-9.947,16.058-19.42,29.921-20.535c30.989-2.507,55.47,24.654,60.394,51.243
									c5.552,30.007-11.664,57.369-44.184,79.556c-25.059,17.105-48.679,25.577-83.458,26.36
									c-5.028,0.108-10.022,0.087-13.813,0.06l-0.039,4.835C913.986,324.44,915.828,324.45,917.808,324.45z"/>
							</g>
						</g>
					</g>
				</g>
			</g>
			<g>
				<g>
					<g>
						<g>
							<g>
								<g>
									<path fill="#614D13" d="M190.86,1380.403c23.071,1.702,20.871-21.071,8.347-30.202c-10.008-7.3-23.892-4.999-31.493,2.582
										c-15.328,15.297-6.106,42.864,12.514,49.82c13.145,4.914,28.468-0.714,38.576-9.362
										c13.395-11.468,15.223-26.847,10.208-42.477c-5.572-17.353-20.316-30.144-36.984-36.295
										c-17.226-6.357-31.039-2.271-46.381,6.545c-30.964,17.798-31.08,69.367-17.232,97.839
										c12.967,26.641,32.621,45.971,59.38,58.389c30.411,14.101,56.104,12.576,85.683,3.423
										c34.498-10.666,69.816-39.552,97.493-61.284c26.726-20.985,54.019-37.949,83.468-54.88
										c33.984-19.541,70.274-27.569,107.707-38.952c37.753-11.477,76.943-13.597,116.509-11.131
										c59.632,3.712,147.269,33.222,149.513,105.297c0.121,3.9-5.919,3.89-6.045,0c-2.396-76.914-104.696-100.348-165.315-99.844
										c-35.646,0.291-71.255,9.706-104.993,20.518c-35.655,11.428-69.982,26.046-102.31,44.975
										c-31.226,18.273-60.911,39.284-89.182,61.832c-24.435,19.486-49.242,37.498-79.828,45.713
										c-49.71,13.349-114.301-0.167-146.804-42.285c-17.086-22.14-26.892-44.088-26.751-72.383
										c0.146-28.135,11.271-53.844,37.635-65.637c25.023-11.187,52.473-7.985,73.092,10.232
										c16.834,14.871,26.443,42.658,16.708,63.911c-8.205,17.921-29.489,30.465-49.377,26.488
										c-22.608-4.516-33.698-26.608-27.918-48.24c5.956-22.275,31.18-30.093,47.838-14.241
										c15.731,14.972,3.146,38.863-16.98,38.097c-8.608-0.321-14.372-3.171-13.073-9.096
										C177.339,1368.463,187.906,1380.188,190.86,1380.403z"/>
								</g>
							</g>
							<g>
								<path fill="#614D13" d="M383.468,1276.79c-6.024,0-12.448,1.339-18,4.47c-7.354,4.149-19.094,14.106-19.199,33.158
									c-0.267,49.551,106.12,64.535,107.162,64.672l2.135,0.268l0.714-2.068l0.519-2.08l-2.019-0.766l-0.845,2.245l0.161-2.39
									c59.606-20.212-88.386-10.027-97.534-58.278c-2.471-13.008,3.635-24.003,12.575-29.041
									c10.678-6.021,22.472-5.478,27.964-2.2c6.065,3.63,9.665,10.677,9.171,17.962c-0.443,6.519-5.411,14.522-11.064,16.938
									c-6.681,2.85-12.238,1.697-16.466-0.684c-4.37-2.462-4.138-11.206,0.685-10.446c8.694,1.37,12.227-6.292,6.016-10.289
									c-10.159-6.524-12.64,9.796-12.64,9.796c-1.118,4.516,0.387,9.061,4.032,12.156c5.124,4.36,13.199,4.828,21.605,1.239
									c7.355-3.142,12.092-10.018,12.656-18.384c0.619-9.076-3.901-17.886-11.513-22.438
									C395.57,1278.236,389.731,1276.79,383.468,1276.79z"/>
							</g>
							<g>
								<path fill="#614D13" d="M732.196,1325.549c-2.679,0-5.588,0.021-8.513,0.087c-35.721,0.811-68.255,10.556-94.089,28.179
									c-34.171,23.317-50.38,55.037-44.459,87.013c5.299,28.647,31.865,57.899,65.537,55.183
									c15.368-1.239,30.662-11.348,39.914-26.388c8.885-14.434,10.782-30.548,5.214-44.204
									c-4.626-11.336-18.821-27.54-34.618-26.328c-7.884,0.615-14.004,6.815-15.595,15.797c-1.355,7.632,4.667,22.44,12.544,27.27
									c4.313,2.642,12.001,2.652,14.885-1.043c2.371-3.041,0.484-13.354-7.858-13.283c-6.655,0.054-15.836-6.308-14.81-12.103
									c0.906-5.12,4.384-11.285,11.205-11.814c12.802-1.013,25.518,12.912,29.771,23.332c4.979,12.212,3.424,26.876-4.862,39.844
									c-6.353,9.957-16.059,19.426-29.917,20.544c-30.999,2.502-55.474-24.652-60.397-51.247
									c-5.552-30.001,11.664-57.371,44.183-79.556c25.059-17.101,48.678-25.572,83.462-26.357
									c5.025-0.109,10.019-0.091,13.809-0.066l0.036-4.831C736.011,1325.565,734.169,1325.549,732.196,1325.549z"/>
							</g>
						</g>
					</g>
				</g>
				<g>
					<g>
						<g>
							<g>
								<g>
									<path fill="#614D13" d="M1459.136,1380.403c-23.075,1.702-20.864-21.071-8.346-30.202
										c10.008-7.3,23.896-4.999,31.492,2.582c15.333,15.297,6.107,42.864-12.51,49.82c-13.153,4.914-28.472-0.714-38.579-9.362
										c-13.396-11.468-15.224-26.847-10.205-42.477c5.572-17.353,20.313-30.144,36.98-36.295
										c17.227-6.357,31.039-2.271,46.383,6.545c30.969,17.798,31.079,69.367,17.225,97.839
										c-12.961,26.641-32.608,45.971-59.374,58.389c-30.411,14.101-56.103,12.576-85.683,3.423
										c-34.499-10.666-69.816-39.552-97.488-61.284c-26.729-20.985-54.023-37.949-83.467-54.88
										c-33.984-19.541-70.279-27.569-107.711-38.952c-37.754-11.477-76.944-13.597-116.512-11.131
										c-59.632,3.712-147.268,33.222-149.512,105.297c-0.12,3.9,5.925,3.89,6.045,0c2.392-76.914,104.701-100.348,165.31-99.844
										c35.646,0.291,71.261,9.706,104.998,20.518c35.66,11.428,69.987,26.046,102.311,44.975
										c31.23,18.273,60.915,39.284,89.187,61.832c24.43,19.486,49.236,37.498,79.822,45.713
										c49.71,13.349,114.301-0.167,146.805-42.285c17.084-22.14,26.892-44.088,26.751-72.383
										c-0.151-28.135-11.271-53.844-37.635-65.637c-25.019-11.187-52.474-7.985-73.092,10.232
										c-16.834,14.871-26.443,42.658-16.708,63.911c8.205,17.921,29.483,30.465,49.378,26.488
										c22.608-4.516,33.696-26.608,27.918-48.24c-5.955-22.275-31.181-30.093-47.837-14.241
										c-15.731,14.972-3.147,38.863,16.979,38.097c8.608-0.321,14.377-3.171,13.078-9.096
										C1472.658,1368.463,1462.092,1380.188,1459.136,1380.403z"/>
								</g>
							</g>
							<g>
								<path fill="#614D13" d="M1266.527,1276.79c6.031,0,12.449,1.339,18.007,4.47c7.351,4.149,19.089,14.106,19.194,33.158
									c0.267,49.551-106.121,64.535-107.163,64.672l-2.128,0.268l-0.715-2.068l-0.52-2.08l2.014-0.766l0.852,2.245l-0.166-2.39
									c-59.607-20.212,88.385-10.027,97.537-58.278c2.467-13.008-3.641-24.003-12.58-29.041
									c-10.677-6.021-22.477-5.478-27.964-2.2c-6.065,3.63-9.665,10.677-9.171,17.962c0.442,6.519,5.416,14.522,11.064,16.938
									c6.68,2.85,12.236,1.697,16.466-0.684c4.37-2.462,4.138-11.206-0.685-10.446c-8.688,1.37-12.229-6.292-6.016-10.289
									c10.158-6.524,12.64,9.796,12.64,9.796c1.118,4.516-0.388,9.061-4.026,12.156c-5.129,4.36-13.21,4.828-21.61,1.239
									c-7.361-3.142-12.087-10.018-12.655-18.384c-0.62-9.076,3.9-17.886,11.512-22.438
									C1254.426,1278.236,1260.266,1276.79,1266.527,1276.79z"/>
							</g>
							<g>
								<path fill="#614D13" d="M917.808,1325.549c2.671,0,5.582,0.021,8.507,0.087c35.721,0.811,68.255,10.556,94.09,28.179
									c34.174,23.317,50.379,55.037,44.459,87.013c-5.301,28.647-31.864,57.899-65.537,55.183
									c-15.363-1.239-30.661-11.348-39.913-26.388c-8.886-14.434-10.784-30.548-5.217-44.204
									c4.627-11.336,18.822-27.54,34.62-26.328c7.887,0.615,14.004,6.815,15.594,15.797c1.355,7.632-4.661,22.44-12.544,27.27
									c-4.31,2.642-12.001,2.652-14.88-1.043c-2.377-3.041-0.488-13.354,7.856-13.283c6.655,0.054,15.832-6.308,14.806-12.103
									c-0.906-5.12-4.385-11.285-11.205-11.814c-12.803-1.013-25.518,12.912-29.771,23.332
									c-4.979,12.212-3.423,26.876,4.863,39.844c6.353,9.957,16.058,19.426,29.921,20.544
									c30.989,2.502,55.47-24.652,60.394-51.247c5.552-30.001-11.664-57.371-44.184-79.556
									c-25.059-17.101-48.679-25.572-83.458-26.357c-5.028-0.109-10.022-0.091-13.813-0.066l-0.039-4.831
									C913.986,1325.565,915.828,1325.549,917.808,1325.549z"/>
							</g>
						</g>
					</g>
				</g>
			</g>
		</g>
		<g>
			<g>
				<g>
					<path fill="#614D13" d="M1471.212,1301.019c-24.011-1.489-61.021-17.16-75.774-37.054c-16.34-22.024-21.53-36.93-25.98-63.726
						c-4.401-26.438-4.994-61.434,3.967-90.218c8.708-27.983,18.988-52.992,34.825-76.158c18.116-26.51,36.384-49.952,59.159-72.188
						c23.87-23.321,48.35-52.277,68.038-79.415c11.266-15.52,12.514-33.869-1.817-47.857c-13.813-13.486-37.338-6.374-43.625,7.979
						c-6.624,15.138-22.118,3.322-9.08-9.704c19.904-19.885,55.922-12.198,65.351,16.233c1.237,3.724,1.642,7.415,1.428,11.038
						v0.046c-0.019,5.654-1.992,11.396-3.904,16.622c-6.071,16.587-15.485,31.961-25.181,46.62
						c-14.996,22.693-32.143,43.81-49.549,64.661c-12.967,15.52-25.492,32.549-37.845,48.678
						c-12.751,16.646-22.971,35.515-30.023,53.49c-5.915,15.087-11.518,32.357-13.823,48.361
						c-2.939,20.463-4.234,35.776-2.301,56.425c1.642,17.594,11.499,36.567,16.99,49.082c3.328,7.596,11.607,18.57,19.834,25.924
						c9.933,8.87,24.314,18.711,37.02,22.18c29.568,8.08,55.866-5.849,73.289-30.808c26.383-37.785,11.995-86.252-34.277-96.355
						c-23.256-5.083-48.854,5.039-47.947,30.583c0.438,12.317,9.418,23.176,20.055,28.471c6.198,3.091,13.341,3.605,19.725,0.901
						c6.07-2.577,3.85-6.468-0.624-13.782c-8.9-14.519,6.915-17.686,11.772-3.62c3.898,11.281-5.23,19.386-14.723,21.848
						c-11.574,2.989-24.959-5.014-31.619-14.016c-17.226-23.266-1.898-52.029,24.123-59.228c28.678-7.935,63.81,12.382,74.98,37.352
						c10.913,24.409,1.632,56.027-14.256,77.588c-14.035,19.079-35.525,28.824-57.724,30.087c0.01,0,0.01,0,0.024,0
						C1483.465,1301.165,1470.734,1301.044,1471.212,1301.019z"/>
				</g>
				<g>
					<path fill="#614D13" d="M1471.212,342.137c-24.011,1.488-61.021,17.159-75.774,37.052c-16.34,22.023-21.53,36.929-25.98,63.725
						c-4.401,26.443-4.994,61.429,3.967,90.224c8.708,27.979,18.988,52.987,34.825,76.158
						c18.116,26.499,36.384,49.947,59.159,72.182c23.87,23.322,48.35,52.282,68.038,79.416c11.266,15.52,12.514,33.869-1.817,47.853
						c-13.813,13.496-37.338,6.383-43.625-7.979c-6.624-15.132-22.118-3.323-9.08,9.706c19.904,19.889,55.922,12.207,65.351-16.229
						c1.237-3.721,1.642-7.415,1.428-11.035v-0.055c-0.019-5.648-1.992-11.392-3.904-16.617
						c-6.071-16.586-15.485-31.955-25.181-46.619c-14.996-22.688-32.143-43.815-49.549-64.666
						c-12.967-15.515-25.492-32.55-37.845-48.673c-12.751-16.643-22.971-35.514-30.023-53.491
						c-5.915-15.082-11.518-32.354-13.823-48.361c-2.939-20.458-4.234-35.776-2.301-56.425c1.642-17.589,11.499-36.567,16.99-49.076
						c3.328-7.599,11.607-18.573,19.834-25.936c9.933-8.865,24.314-18.706,37.02-22.177c29.568-8.077,55.866,5.852,73.289,30.813
						c26.383,37.787,11.995,86.253-34.277,96.352c-23.256,5.09-48.854-5.039-47.947-30.581c0.438-12.318,9.418-23.171,20.055-28.472
						c6.198-3.086,13.341-3.609,19.725-0.901c6.07,2.578,3.85,6.474-0.624,13.783c-8.9,14.518,6.915,17.689,11.772,3.625
						c3.898-11.281-5.23-19.391-14.723-21.853c-11.574-2.985-24.959,5.014-31.619,14.01c-17.226,23.277-1.898,52.036,24.123,59.229
						c28.678,7.938,63.81-12.378,74.98-37.347c10.913-24.415,1.632-56.028-14.256-77.593
						c-14.035-19.071-35.525-28.819-57.724-30.083c0.01,0,0.01,0,0.024,0C1483.465,341.989,1470.734,342.109,1471.212,342.137z"/>
				</g>
			</g>
			<g>
				<g>
					<path fill="#614D13" d="M178.779,1301.019c24.018-1.489,61.026-17.16,75.781-37.054c16.34-22.024,21.53-36.93,25.986-63.726
						c4.394-26.438,4.989-61.434-3.972-90.218c-8.708-27.983-18.988-52.992-34.819-76.158
						c-18.123-26.51-36.396-49.952-59.165-72.188c-23.865-23.321-48.351-52.277-68.034-79.415
						c-11.271-15.52-12.514-33.869,1.817-47.857c13.808-13.486,37.332-6.374,43.619,7.979c6.624,15.138,22.12,3.322,9.082-9.704
						c-19.905-19.885-55.918-12.198-65.351,16.233c-1.239,3.724-1.642,7.415-1.424,11.038v0.046
						c0.015,5.654,1.993,11.396,3.906,16.622c6.066,16.587,15.48,31.961,25.175,46.62c15,22.693,32.136,43.81,49.549,64.661
						c12.977,15.52,25.497,32.549,37.851,48.678c12.745,16.646,22.964,35.515,30.021,53.49
						c5.916,15.087,11.518,32.357,13.813,48.361c2.946,20.463,4.239,35.776,2.306,56.425c-1.641,17.594-11.498,36.567-16.984,49.082
						c-3.333,7.596-11.614,18.57-19.839,25.924c-9.933,8.87-24.309,18.711-37.02,22.18c-29.57,8.08-55.867-5.849-73.29-30.808
						c-26.382-37.785-11.996-86.252,34.281-96.355c23.257-5.083,48.854,5.039,47.944,30.583
						c-0.443,12.317-9.424,23.176-20.055,28.471c-6.197,3.091-13.335,3.605-19.724,0.901c-6.065-2.577-3.855-6.468,0.63-13.782
						c8.895-14.519-6.921-17.686-11.779-3.62c-3.897,11.281,5.23,19.386,14.729,21.848c11.573,2.989,24.958-5.014,31.619-14.016
						c17.226-23.266,1.892-52.029-24.118-59.228c-28.689-7.935-63.82,12.382-74.985,37.352
						c-10.919,24.409-1.631,56.027,14.251,77.588c14.04,19.079,35.524,28.824,57.718,30.087c-0.005,0-0.005,0-0.014,0
						C166.531,1301.165,179.262,1301.044,178.779,1301.019z"/>
				</g>
				<g>
					<path fill="#614D13" d="M178.779,342.137c24.018,1.488,61.026,17.159,75.781,37.052c16.34,22.023,21.53,36.929,25.986,63.725
						c4.394,26.443,4.989,61.429-3.972,90.224c-8.708,27.979-18.988,52.987-34.819,76.158
						c-18.123,26.499-36.396,49.947-59.165,72.182c-23.865,23.322-48.351,52.282-68.034,79.416
						c-11.271,15.52-12.514,33.869,1.817,47.853c13.808,13.496,37.332,6.383,43.619-7.979c6.624-15.132,22.12-3.323,9.082,9.706
						c-19.905,19.889-55.918,12.207-65.351-16.229c-1.239-3.721-1.642-7.415-1.424-11.035v-0.055
						c0.015-5.648,1.993-11.392,3.906-16.617c6.066-16.586,15.48-31.955,25.175-46.619c15-22.688,32.136-43.815,49.549-64.666
						c12.977-15.515,25.497-32.55,37.851-48.673c12.745-16.643,22.964-35.514,30.021-53.491
						c5.916-15.082,11.518-32.354,13.813-48.361c2.946-20.458,4.239-35.776,2.306-56.425c-1.641-17.589-11.498-36.567-16.984-49.076
						c-3.333-7.599-11.614-18.573-19.839-25.936c-9.933-8.865-24.309-18.706-37.02-22.177c-29.57-8.077-55.867,5.852-73.29,30.813
						c-26.382,37.787-11.996,86.253,34.281,96.352c23.257,5.09,48.854-5.039,47.944-30.581
						c-0.443-12.318-9.424-23.171-20.055-28.472c-6.197-3.086-13.335-3.609-19.724-0.901c-6.065,2.578-3.855,6.474,0.63,13.783
						c8.895,14.518-6.921,17.689-11.779,3.625c-3.897-11.281,5.23-19.391,14.729-21.853c11.573-2.985,24.958,5.014,31.619,14.01
						c17.226,23.277,1.892,52.036-24.118,59.229c-28.689,7.938-63.82-12.378-74.985-37.347
						c-10.919-24.415-1.631-56.028,14.251-77.593c14.04-19.071,35.524-28.819,57.718-30.083c-0.005,0-0.005,0-0.014,0
						C166.531,341.989,179.262,342.109,178.779,342.137z"/>
				</g>
			</g>
		</g>
	</g>
</g>
<g id="Capa_3">
	<g>
		<g>
			<path fill="#4B4A4B" d="M753.934,1629.095c-2.381-0.092-4.623-0.604-6.728-1.536c-2.093-0.937-3.926-2.188-5.47-3.781
				c-1.549-1.574-2.766-3.421-3.66-5.523c-0.905-2.083-1.35-4.343-1.35-6.737v-15.945c0-0.709,0.255-1.315,0.78-1.828
				c0.512-0.519,1.126-0.781,1.84-0.781c0.763,0,1.392,0.263,1.884,0.781c0.497,0.513,0.734,1.119,0.734,1.828v15.945
				c0,1.499,0.269,2.932,0.777,4.293c0.516,1.373,1.24,2.587,2.151,3.658c0.917,1.071,1.991,1.966,3.228,2.704
				c1.226,0.732,2.55,1.246,4.002,1.511v-28.111c0-0.709,0.249-1.315,0.769-1.828c0.508-0.519,1.15-0.781,1.909-0.781
				c0.724,0,1.318,0.263,1.818,0.781c0.5,0.513,0.736,1.119,0.736,1.828v30.908c0,0.728-0.237,1.345-0.736,1.851
				c-0.5,0.519-1.119,0.765-1.89,0.765H753.934z"/>
			<path fill="#4B4A4B" d="M771.935,1593.164c1.433,0,2.789,0.294,4.063,0.845c1.277,0.551,2.387,1.3,3.329,2.229
				c0.938,0.952,1.682,2.059,2.257,3.329c0.56,1.271,0.833,2.608,0.833,4.037v1.274c0,1.426-0.274,2.77-0.833,4.047
				c-0.576,1.273-1.319,2.367-2.257,3.319c-0.942,0.93-2.052,1.68-3.329,2.238c-1.274,0.557-2.63,0.832-4.063,0.832h-5.301v3.331
				c0,1.438,0.506,2.669,1.54,3.692c1.03,1.035,2.262,1.547,3.698,1.547c1.161,0,2.204-0.346,3.108-1
				c0.93-0.682,1.561-1.57,1.929-2.693c0.224-0.701,0.642-1.226,1.283-1.567c0.623-0.332,1.296-0.382,2.007-0.158
				c0.67,0.218,1.188,0.646,1.542,1.271c0.364,0.62,0.434,1.266,0.209,1.93c-0.724,2.225-1.999,4.034-3.835,5.393
				c-1.84,1.362-3.917,2.036-6.245,2.036c-1.436,0-2.785-0.271-4.065-0.831c-1.28-0.569-2.384-1.309-3.335-2.248
				c-0.93-0.93-1.685-2.036-2.25-3.301c-0.557-1.281-0.833-2.631-0.833-4.069v-15.042c0-1.429,0.275-2.766,0.833-4.037
				c0.565-1.271,1.32-2.377,2.25-3.329c0.952-0.929,2.056-1.678,3.335-2.229C769.086,1593.458,770.458,1593.164,771.935,1593.164z
				 M766.633,1610.171h5.301c1.433,0,2.668-0.526,3.706-1.581c1.027-1.047,1.53-2.286,1.53-3.712v-1.274
				c0-1.429-0.502-2.645-1.53-3.68c-1.037-1.015-2.273-1.533-3.706-1.533c-1.477,0-2.731,0.519-3.761,1.533
				c-1.034,1.035-1.54,2.251-1.54,3.68V1610.171z"/>
			<path fill="#4B4A4B" d="M801.975,1603.278c0-0.364-0.031-0.626-0.07-0.81c-0.05-0.174-0.079-0.307-0.079-0.401
				c-0.171-0.845-0.623-1.653-1.344-2.402c-0.979-0.977-2.184-1.482-3.626-1.482c-1.47,0-2.684,0.506-3.625,1.482
				c-0.984,0.974-1.474,2.2-1.474,3.667v15.469c0,1.42,0.489,2.633,1.474,3.595c0.983,0.995,2.2,1.489,3.625,1.489
				c1.351,0,2.554-0.494,3.626-1.489c0.997-1.069,1.493-2.27,1.493-3.595c0-0.724,0.247-1.332,0.733-1.834
				c0.483-0.524,1.113-0.777,1.884-0.777c0.712,0,1.328,0.253,1.84,0.777c0.512,0.502,0.781,1.11,0.781,1.834
				c0,2.808-1.03,5.239-3.092,7.284c-2.017,2.015-4.442,3.01-7.265,3.01c-2.858,0-5.301-0.995-7.325-3.01
				c-2.049-2.045-3.088-4.477-3.088-7.284v-15.469c0-2.845,1.039-5.312,3.088-7.35c2.023-2.056,4.467-3.09,7.325-3.09
				c2.823,0,5.248,1.034,7.265,3.09c2.013,2.038,3.045,4.463,3.092,7.216v0.08c-0.047,0.715-0.313,1.304-0.812,1.796
				c-0.494,0.499-1.098,0.739-1.81,0.739c-0.726,0-1.34-0.24-1.858-0.739C802.231,1604.582,801.975,1603.993,801.975,1603.278z"/>
			<path fill="#4B4A4B" d="M821.582,1623.885c0.582,0.045,1.205,0.285,1.844,0.736c0.661,0.439,0.973,1.063,0.973,1.858
				c0,0.769-0.249,1.392-0.755,1.888c-0.524,0.487-1.131,0.728-1.859,0.728c-2.909,0-5.399-1.034-7.454-3.079
				c-2.064-2.049-3.083-4.5-3.083-7.37v-23.138c0-0.753,0.255-1.379,0.771-1.865c0.502-0.494,1.154-0.75,1.909-0.75
				c0.718,0,1.332,0.256,1.84,0.75c0.522,0.486,0.765,1.112,0.765,1.865v1.012h2.969c0.72,0,1.343,0.259,1.853,0.771
				c0.5,0.506,0.777,1.118,0.777,1.834c0,0.754-0.277,1.384-0.777,1.873c-0.509,0.5-1.132,0.73-1.853,0.73h-2.969v16.917
				c0,1.349,0.53,2.584,1.552,3.692C819.034,1623.277,820.202,1623.79,821.582,1623.885z"/>
			<path fill="#4B4A4B" d="M846.578,1595.982c2.061,2.038,3.09,4.479,3.09,7.296v15.522c0,2.758-1.029,5.166-3.09,7.215
				c-2.012,2.045-4.453,3.079-7.322,3.079h-1.139c-2.83,0-5.242-1.034-7.262-3.079c-2.059-1.991-3.089-4.407-3.089-7.215v-15.522
				c0-2.864,1.03-5.286,3.089-7.296c2.059-2.056,4.477-3.09,7.262-3.09h1.139C842.078,1592.893,844.521,1593.927,846.578,1595.982z
				 M844.361,1603.278c0-1.436-0.49-2.64-1.471-3.613c-0.992-0.942-2.2-1.404-3.635-1.404h-1.082c-1.375,0-2.617,0.462-3.688,1.404
				c-0.979,1.065-1.473,2.272-1.473,3.613v15.522c0,1.325,0.494,2.525,1.473,3.595c1.07,0.942,2.313,1.426,3.688,1.426h1.082
				c1.435,0,2.643-0.483,3.635-1.426c0.98-0.962,1.471-2.175,1.471-3.595V1603.278z"/>
			<path fill="#4B4A4B" d="M853.904,1603.278c0-2.903,1.012-5.354,3.029-7.363c2.008-2.051,4.469-3.076,7.383-3.076
				c0.723,0,1.334,0.253,1.85,0.765c0.514,0.513,0.771,1.123,0.771,1.834c0,0.857-0.326,1.499-0.971,1.916
				c-0.652,0.424-1.266,0.654-1.848,0.702c-1.393,0.082-2.563,0.606-3.492,1.55c-0.986,0.963-1.49,2.19-1.49,3.673v20.869
				c0,1.391-0.512,2.564-1.539,3.509c-1.031,0.955-2.264,1.438-3.693,1.438V1603.278z"/>
		</g>
		<path fill="#4B4A4B" d="M890.486,1592.89h-1.15c-2.766,0-5.188,1.024-7.234,3.073c-2.064,2-3.084,4.416-3.084,7.278v15.513
			c0,2.797,1.02,5.204,3.084,7.189c2.012,2.062,4.42,3.094,7.234,3.094h1.15c2.861,0,5.299-1.032,7.316-3.094
			c2.051-2.027,3.08-4.428,3.08-7.189v-15.513c0-2.796-1.029-5.233-3.08-7.278C895.742,1593.914,893.309,1592.89,890.486,1592.89z
			 M895.576,1618.754c0,1.416-0.486,2.628-1.463,3.595c-0.99,0.948-2.205,1.402-3.627,1.402h-1.074
			c-1.381,0-2.617-0.454-3.693-1.402c-0.98-1.063-1.473-2.272-1.473-3.595v-15.513c0-1.339,0.492-2.54,1.473-3.604
			c1.076-0.936,2.313-1.417,3.693-1.417h1.074c1.422,0,2.637,0.481,3.627,1.417c0.977,0.98,1.463,2.188,1.463,3.604V1618.754z
			 M915.514,1592.89c-2.818,0-5.254,1.024-7.316,3.073c-2.061,2.045-3.078,4.482-3.078,7.278v33.423
			c1.482,0,2.715-0.514,3.752-1.475c1.027-0.941,1.533-2.117,1.533-3.557v-2.596h5.109c2.863,0,5.299-1.032,7.309-3.094
			c2.064-2.027,3.086-4.428,3.086-7.189v-15.513c0-2.796-1.021-5.233-3.086-7.278C920.779,1593.914,918.33,1592.89,915.514,1592.89z
			 M920.605,1618.754c0,1.359-0.461,2.572-1.4,3.595c-1.08,0.948-2.299,1.402-3.691,1.402h-5.109v-20.51
			c0-1.417,0.498-2.624,1.486-3.604c1.07-0.936,2.279-1.417,3.623-1.417c1.393,0,2.611,0.481,3.691,1.417
			c0.939,0.98,1.4,2.188,1.4,3.604V1618.754z M947.523,1596.225c-0.93-0.941-2.043-1.673-3.324-2.238
			c-1.273-0.553-2.629-0.838-4.059-0.838c-1.477,0-2.852,0.285-4.133,0.838c-1.273,0.565-2.377,1.297-3.318,2.238
			c-0.936,0.938-1.689,2.036-2.246,3.307c-0.561,1.275-0.844,2.621-0.844,4.044v15.043c0,1.423,0.283,2.766,0.844,4.03
			c0.557,1.281,1.311,2.377,2.246,3.295c0.941,0.951,2.045,1.704,3.318,2.26c1.281,0.551,2.625,0.834,4.07,0.834
			c2.316,0,4.404-0.67,6.229-2.035c1.842-1.359,3.123-3.154,3.83-5.39c0.229-0.677,0.158-1.3-0.207-1.929
			c-0.346-0.633-0.863-1.047-1.537-1.269c-0.715-0.23-1.379-0.173-2.002,0.162c-0.631,0.335-1.063,0.863-1.279,1.577
			c-0.361,1.106-1,1.992-1.92,2.668c-0.92,0.67-1.951,0.999-3.113,0.999c-1.445,0-2.67-0.513-3.689-1.543
			c-1.035-1.018-1.553-2.237-1.553-3.66v-3.352h5.305c1.43,0,2.785-0.266,4.059-0.835c1.281-0.551,2.395-1.296,3.324-2.248
			c0.936-0.919,1.688-2.025,2.244-3.294c0.557-1.276,0.838-2.613,0.838-4.046v-1.269c0-1.423-0.281-2.769-0.838-4.044
			C949.211,1598.261,948.459,1597.163,947.523,1596.225z M945.377,1604.844c0,1.433-0.514,2.671-1.543,3.711
			c-1.031,1.047-2.264,1.577-3.693,1.577h-5.305v-6.557c0-1.423,0.518-2.649,1.553-3.673c1.02-1.035,2.275-1.547,3.752-1.547
			c1.43,0,2.662,0.512,3.693,1.547c1.029,1.023,1.543,2.25,1.543,3.673V1604.844z M964.959,1592.89
			c-1.783,0-3.547,0.487-5.293,1.477c-0.496-0.989-1.293-1.477-2.414-1.477c-0.723,0-1.32,0.259-1.826,0.796
			c-0.525,0.529-0.799,1.123-0.799,1.8v33.552c1.492,0,2.713-0.486,3.691-1.466c1.07-1.034,1.617-2.21,1.617-3.545v-20.785
			c0-1.388,0.471-2.564,1.406-3.528c0.986-0.993,2.189-1.493,3.617-1.493c1.35,0,2.566,0.481,3.635,1.417
			c0.986,0.98,1.482,2.188,1.482,3.604v25.796c1.467,0,2.705-0.486,3.682-1.466c1.025-0.987,1.551-2.169,1.551-3.545v-20.785
			c0-2.862-1.021-5.278-3.033-7.278C970.219,1593.914,967.787,1592.89,964.959,1592.89z M1007.609,1610.227
			c-1.004-1.005-2.182-1.795-3.525-2.373c-1.336-0.573-2.768-0.87-4.293-0.87h-0.736c-1.26,0-2.324-0.43-3.186-1.303
			c-0.881-0.862-1.316-1.915-1.316-3.174c0-1.202,0.424-2.247,1.277-3.104c0.863-0.882,1.906-1.302,3.143-1.302
			c1.215,0,2.25,0.416,3.107,1.263c0.48,0.487,1.102,0.748,1.844,0.748c0.73,0,1.346-0.261,1.848-0.748
			c0.486-0.496,0.732-1.103,0.732-1.832c0-0.74-0.246-1.348-0.732-1.843c-0.9-0.882-1.93-1.569-3.09-2.027
			c-1.17-0.471-2.395-0.701-3.709-0.701c-1.328,0-2.58,0.243-3.74,0.726c-1.174,0.5-2.188,1.17-3.045,2.037
			c-0.877,0.879-1.58,1.891-2.092,3.048c-0.521,1.153-0.775,2.402-0.775,3.736c0,1.341,0.254,2.583,0.775,3.74
			c0.512,1.167,1.215,2.175,2.092,3.034c0.857,0.877,1.871,1.566,3.045,2.078c1.16,0.515,2.412,0.768,3.74,0.768l0.752,0.057
			c1.646,0,3.055,0.578,4.199,1.714c1.121,1.142,1.711,2.508,1.711,4.107c0,1.604-0.59,2.986-1.711,4.142
			c-1.145,1.162-2.525,1.744-4.133,1.744c-1.34,0-2.543-0.398-3.588-1.207c-1.053-0.8-1.768-1.84-2.115-3.148
			c-0.174-0.696-0.584-1.243-1.199-1.6c-0.637-0.346-1.305-0.411-2.029-0.197c-0.664,0.229-1.188,0.646-1.539,1.244
			c-0.354,0.606-0.443,1.254-0.266,1.953c0.674,2.414,2.01,4.365,3.99,5.864c1.984,1.489,4.236,2.237,6.746,2.237
			c1.525,0,2.957-0.29,4.293-0.882c1.344-0.571,2.521-1.355,3.525-2.367c1.008-0.986,1.809-2.156,2.385-3.51
			c0.584-1.343,0.869-2.751,0.869-4.273c0-1.513-0.285-2.938-0.869-4.272C1009.418,1612.396,1008.617,1611.223,1007.609,1610.227z
			 M1026.393,1624.551c-0.643-0.444-1.256-0.688-1.83-0.729c-1.398-0.091-2.563-0.595-3.498-1.543
			c-1.033-1.106-1.543-2.332-1.543-3.66v-16.917h2.955c0.713,0,1.322-0.24,1.842-0.74c0.521-0.474,0.773-1.11,0.773-1.856
			c0-0.72-0.252-1.327-0.773-1.845c-0.52-0.51-1.129-0.763-1.842-0.763h-2.955v-1.012c0-0.759-0.256-1.378-0.771-1.865
			c-0.521-0.489-1.135-0.73-1.846-0.73c-0.768,0-1.395,0.241-1.904,0.73c-0.52,0.487-0.777,1.106-0.777,1.865v23.133
			c0,2.846,1.025,5.298,3.086,7.325c2.055,2.062,4.531,3.094,7.451,3.094c0.711,0,1.32-0.248,1.84-0.726
			c0.506-0.51,0.766-1.129,0.766-1.886C1027.365,1625.63,1027.057,1625.01,1026.393,1624.551z M1042.189,1592.89h-1.127
			c-2.764,0-5.189,1.024-7.254,3.073c-2.051,2-3.08,4.416-3.08,7.278v15.513c0,2.797,1.029,5.204,3.08,7.189
			c2.023,2.062,4.436,3.094,7.254,3.094h1.127c2.877,0,5.316-1.032,7.326-3.094c2.047-2.027,3.082-4.428,3.082-7.189v-15.513
			c0-2.796-1.035-5.233-3.082-7.278C1047.457,1593.914,1045.021,1592.89,1042.189,1592.89z M1047.314,1618.754
			c0,1.416-0.51,2.628-1.488,3.595c-0.996,0.948-2.186,1.402-3.637,1.402h-1.066c-1.367,0-2.613-0.454-3.691-1.402
			c-0.977-1.063-1.477-2.272-1.477-3.595v-15.513c0-1.339,0.5-2.54,1.477-3.604c1.078-0.936,2.324-1.417,3.691-1.417h1.066
			c1.451,0,2.641,0.481,3.637,1.417c0.979,0.98,1.488,2.188,1.488,3.604V1618.754z M1067.229,1592.89
			c-2.865,0-5.295,1.024-7.316,3.073c-2.057,2.045-3.102,4.486-3.102,7.34v15.451c0,2.797,1.045,5.226,3.102,7.275
			c2.021,1.988,4.451,3.008,7.316,3.008c2.826,0,5.238-1.02,7.24-3.008c2.07-2.05,3.094-4.479,3.094-7.275
			c0-0.718-0.252-1.337-0.768-1.85c-0.512-0.506-1.125-0.768-1.85-0.768c-0.752,0-1.381,0.262-1.875,0.768
			c-0.502,0.513-0.742,1.132-0.742,1.85c0,1.322-0.484,2.531-1.465,3.595c-1.084,0.986-2.295,1.473-3.635,1.473
			c-1.441,0-2.641-0.486-3.629-1.473c-0.98-0.967-1.461-2.179-1.461-3.595v-15.451c0-1.466,0.48-2.686,1.461-3.666
			c0.947-0.983,2.145-1.475,3.629-1.475c1.426,0,2.631,0.491,3.635,1.475c0.703,0.742,1.152,1.553,1.318,2.396
			c0,0.095,0.035,0.225,0.09,0.405c0.037,0.177,0.057,0.448,0.057,0.804c0,0.708,0.264,1.306,0.771,1.804
			c0.521,0.487,1.125,0.738,1.846,0.738c0.725,0,1.318-0.251,1.813-0.738c0.488-0.498,0.762-1.096,0.805-1.804v-0.067
			c-0.043-2.76-1.074-5.166-3.094-7.211C1072.467,1593.914,1070.055,1592.89,1067.229,1592.89z M1098.016,1611.53
			c-0.619-0.668-1.311-1.228-2.074-1.68c1.615-1.865,2.432-4.067,2.432-6.609v-4.137c0-0.72-0.275-1.327-0.787-1.845
			c-0.514-0.51-1.119-0.763-1.83-0.763c-0.713,0-1.346,0.253-1.852,0.763c-0.523,0.518-0.762,1.125-0.762,1.845v4.137
			c0,1.415-0.518,2.648-1.551,3.683c-0.936,0.93-2.104,1.441-3.504,1.536h-1.248v-12.901c0-0.709-0.266-1.334-0.762-1.834
			c-0.494-0.512-1.107-0.765-1.889-0.765c-0.697,0-1.324,0.253-1.83,0.765c-0.512,0.5-0.76,1.125-0.76,1.834v33.479
			c1.43,0,2.656-0.486,3.686-1.466c1.023-0.987,1.555-2.153,1.555-3.483v-10.487h3.945c1.418,0.091,2.619,0.595,3.549,1.534
			c0.988,1.036,1.477,2.25,1.477,3.679v10.224c1.439,0,2.676-0.486,3.697-1.466c1.023-0.987,1.543-2.153,1.543-3.483v-5.274
			C1101.051,1616,1100.035,1613.578,1098.016,1611.53z"/>
		<g>
			<path fill="#4B4A4B" d="M548.95,1625.352v-18.962c0-1.274,0.905-2.132,2.134-2.132h5.081c2.833,0,5.421,2.543,5.421,5.511v12.27
				c0,3.146-2.589,5.476-5.421,5.476h-5.081C549.756,1627.514,548.95,1626.479,548.95,1625.352z M551.685,1607.013
				c0,5.978,0.035,11.731,0.035,17.741h4.445c1.432,0,2.662-1.227,2.662-2.716v-12.243c0-1.483-1.229-2.782-2.662-2.782H551.685z"/>
			<path fill="#4B4A4B" d="M577.836,1607.013l-7.819,0.056v7.162h7.48v2.749h-7.48v4.982c0,1.495,1.237,2.792,2.767,2.792h5.052
				v2.76h-5.052c-2.997,0-5.517-2.586-5.517-5.552v-15.554c0-1.265,1.091-2.15,2.229-2.15h8.34V1607.013z"/>
			<path fill="#4B4A4B" d="M588.497,1603.983c3.02,0,6.114,2.231,6.114,6.517h-2.728c0-2.461-1.688-3.753-3.387-3.753
				c-1.739,0-3.427,0.985-3.427,2.828v1.92c0,1.824,2.093,2.466,3.727,2.792c2.69,0.568,5.814,1.4,5.814,5.456v2.39
				c0,3.719-3.124,5.615-6.146,5.615c-3.162,0-6.117-2.225-6.083-6.545h2.688c0,2.486,1.667,3.75,3.396,3.75
				c1.688,0,3.418-0.992,3.418-2.82v-2.39c0-1.995-1.863-2.435-3.655-2.731c-2.89-0.566-5.817-1.229-5.846-5.517v-1.92
				C582.382,1605.884,585.364,1603.983,588.497,1603.983z"/>
			<path fill="#4B4A4B" d="M600.289,1627.514v-23.256h2.757v23.256H600.289z"/>
			<path fill="#4B4A4B" d="M614.181,1614.391h4.385c1.262,0,2.159,0.866,2.159,2.094v5.648c0,3.687-3.124,5.587-6.279,5.587
				c-3.196,0-6.322-1.932-6.322-5.719v-12.394c0-3.763,3.063-5.656,6.253-5.656c3.126,0,6.25,2.227,6.284,6.58h-2.794
				c0-2.523-1.726-3.813-3.49-3.813c-1.799,0-3.519,0.985-3.519,2.889v12.394c0,1.929,1.796,2.952,3.588,2.952
				c1.796,0,3.494-0.992,3.525-2.82v-5.02h-3.791V1614.391z"/>
			<path fill="#4B4A4B" d="M638.233,1604.258v21.366c0,1.261-0.863,1.89-1.764,1.89c-0.661,0-1.562-0.469-1.891-1.194
				c-1.663-4.088-3.256-8.808-4.985-13.329c-0.598-1.594-1.262-4.815-1.559-5.684l-0.404,0.11l0.8,4.078l0.136,16.019h-2.823
				v-21.399c-0.035-1.233,0.892-1.958,1.865-1.958c0.784,0,1.787,0.498,1.947,1.328l-0.022-0.078l6.848,19.348h0.183l-0.951-4.384
				l-0.14-16.112H638.233z"/>
			<path fill="#4B4A4B" d="M654.072,1607.013l-7.802,0.056v7.162h7.477v2.749h-7.477v4.982c0,1.495,1.22,2.792,2.756,2.792h5.046
				v2.76h-5.046c-2.994,0-5.517-2.586-5.517-5.552v-15.554c0-1.265,1.102-2.15,2.229-2.15h8.334V1607.013z"/>
			<path fill="#4B4A4B" d="M659.424,1625.352v-18.962c0-1.274,0.898-2.132,2.13-2.132h5.083c2.817,0,5.416,2.543,5.416,5.511v12.27
				c0,3.146-2.599,5.476-5.416,5.476h-5.083C660.222,1627.514,659.424,1626.479,659.424,1625.352z M662.146,1607.013
				c0,5.978,0.035,11.731,0.035,17.741h4.457c1.423,0,2.654-1.227,2.654-2.716v-12.243c0-1.483-1.231-2.782-2.654-2.782H662.146z"/>
			<path fill="#4B4A4B" d="M697.536,1615.014c2.198,0.338,3.253,2.7,3.253,4.289v2.767c0,2.884-2.659,5.444-5.415,5.479h-5.052
				c-1.322,0-2.132-0.831-2.132-2.197v-18.943c0-1.293,0.81-2.15,2.132-2.15h4.621c2.925,0.032,5.49,2.352,5.49,5.511v1.167
				C700.433,1612.194,699.528,1614.555,697.536,1615.014z M690.922,1607.013v6.673h4.388c1.39,0,2.386-1.259,2.386-2.75v-1.167
				c0-1.495-1.222-2.756-2.753-2.756H690.922z M698.029,1622.069v-2.767c0-1.555-1.22-2.818-2.719-2.818h-4.388v8.305h4.452
				C696.729,1624.723,698.029,1623.527,698.029,1622.069z"/>
			<path fill="#4B4A4B" d="M711.323,1617.483v10.03h-2.76v-10.097c-0.695-1.669-1.395-3.32-2.163-5.091
				c-1.062-2.387-2.491-5.782-3.417-8.068h2.922c0.967,2.188,2.893,7.316,3.755,9.463l0.304,1.795
				c0.031-0.259,0.195-1.529,0.259-1.83c0.771-1.855,3-7.707,3.728-9.428h2.988L711.323,1617.483z"/>
		</g>
	</g>
</g>
</svg>
